Coordinates
version=1
nRows=6
nColumns=63
inDegrees=yes

Units are S.I. units (second, meters, Newtons, ...)
If the header above contains a line with 'inDegrees', this indicates whether rotational values are in degrees (yes) or radians (no).

endheader
time	pelvis_tilt	pelvis_list	pelvis_rotation	pelvis_tx	pelvis_ty	pelvis_tz	hip_flexion_r	hip_adduction_r	hip_rotation_r	knee_angle_r	knee_angle_r_beta	ankle_angle_r	subtalar_angle_r	mtp_angle_r	hip_flexion_l	hip_adduction_l	hip_rotation_l	knee_angle_l	knee_angle_l_beta	ankle_angle_l	subtalar_angle_l	mtp_angle_l	L5_S1_Flex_Ext	L5_S1_Lat_Bending	L5_S1_axial_rotation	L4_L5_Flex_Ext	L4_L5_Lat_Bending	L4_L5_axial_rotation	L3_L4_Flex_Ext	L3_L4_Lat_Bending	L3_L4_axial_rotation	L2_L3_Flex_Ext	L2_L3_Lat_Bending	L2_L3_axial_rotation	L1_L2_Flex_Ext	L1_L2_Lat_Bending	L1_L2_axial_rotation	L1_T12_Flex_Ext	L1_T12_Lat_Bending	L1_T12_axial_rotation	Abs_r3	Abs_r2	Abs_r1	Abs_t1	Abs_t2	neck_flexion	neck_bending	neck_rotation	arm_flex_r	arm_add_r	arm_rot_r	elbow_flex_r	pro_sup_r	wrist_flex_r	wrist_dev_r	arm_flex_l	arm_add_l	arm_rot_l	elbow_flex_l	pro_sup_l	wrist_flex_l	wrist_dev_l
      3.20338983	      2.27648475	     -2.53928848	     96.55922212	      0.26847464	      0.89627394	      0.61123547	    -11.60393178	      4.83008848	      8.08861923	      0.36633116	      0.00639368	     25.41393830	    -12.18545299	      0.00000000	    -10.60870862	     -5.67745223	     18.95970261	      0.21074056	      0.00367812	     31.59467011	    -14.19965982	      0.00000000	     -0.43420894	      0.37257520	     -0.06623298	     -0.80636942	      0.49552502	     -0.07037254	     -0.71336186	      0.90587934	     -0.07037254	     -0.49625739	      0.90587934	     -0.05795386	     -0.40320642	      0.75975535	     -0.05381430	     -0.24810699	      0.57711899	     -0.04967474	     -3.10151101	      4.21464519	     -0.36836797	      0.00000000	      0.00000000	     12.51773239	      1.86870671	     -9.70900348	     11.90743809	    -16.74983879	    122.68376002	      4.82010368	     14.93929627	    -16.16588757	      0.14072248	     -1.34201200	    -16.09158795	     -4.26720247	     21.32777799	     58.31205963	     -4.86473852	     -3.43806754
      3.22033898	      1.94507391	     -2.68533373	     96.84946716	      0.26864025	      0.89657111	      0.61225624	    -11.44424351	      4.55013467	      7.60855853	      0.35946779	      0.00627390	     25.37215610	    -11.93330965	      0.00000000	    -10.33656979	     -5.39378082	     18.75310161	      0.21629168	      0.00377500	     31.45742716	    -13.65166189	      0.00000000	     -0.43002107	      0.32341794	     -0.14204988	     -0.79859213	      0.43014586	     -0.15092800	     -0.70648162	      0.78635838	     -0.15092800	     -0.49147108	      0.78635838	     -0.12429364	     -0.39931757	      0.65951387	     -0.11541553	     -0.24571404	      0.50097439	     -0.10653741	     -3.07159751	      3.65856843	     -0.79003881	      0.00000000	      0.00000000	     12.42086409	      2.19487483	     -9.69986408	     11.49128819	    -16.63412471	    117.29112282	      5.10649217	     12.46130593	    -16.20855226	     -1.36110316	     -1.52396179	    -16.58996064	     -2.76817098	     21.48880963	     62.26879767	     -6.28894239	     -4.40945381
      3.23728814	      1.69680985	     -2.86162943	     97.26944406	      0.26844769	      0.89681469	      0.61326663	    -11.24136671	      4.35625279	      6.56625964	      0.35804053	      0.00624899	     25.63384478	    -10.86548566	      0.00000000	    -10.02705952	     -5.20835167	     18.93947278	      0.21909224	      0.00382388	     31.27628202	    -13.40663251	      0.00000000	     -0.41679514	      0.28652345	     -0.22894045	     -0.77403026	      0.38107619	     -0.24324923	     -0.68475274	      0.69665313	     -0.24324923	     -0.47635517	      0.69665313	     -0.20032290	     -0.38703597	      0.58427863	     -0.18601412	     -0.23815675	      0.44382483	     -0.17170534	     -2.97712603	      3.24121063	     -1.27329811	      0.00000000	      0.00000000	     12.32952254	      2.39269364	     -9.74698905	     10.99097738	    -16.56624116	    112.12968775	      5.32268191	     10.46466153	    -16.09548637	     -2.95212020	     -1.66274987	    -16.73830995	     -2.89182913	     21.79275650	     66.70424110	     -7.40491334	     -4.67063655
      3.25423729	      1.52004772	     -3.14387624	     97.69953396	      0.26774515	      0.89708756	      0.61475888	    -10.61404477	      4.16745751	      2.83426130	      1.03311143	      0.01803120	     27.08168472	     -6.17866531	      0.00000000	     -9.39897771	     -5.01926117	     15.88947420	      0.64937005	      0.01133365	     32.28539422	     -8.78062577	      0.00000000	     -0.38344587	      0.27024680	     -0.38975011	     -0.71209732	      0.35942825	     -0.41410949	     -0.62996321	      0.65707807	     -0.41410949	     -0.43824028	      0.65707807	     -0.34103134	     -0.35606783	      0.55108728	     -0.31667196	     -0.21910097	      0.41861230	     -0.29231258	     -2.73891547	      3.05708587	     -2.16767317	      0.00000000	      0.00000000	     12.08266749	      2.60610730	     -8.78237659	     11.01001440	    -17.12791570	    105.39505600	      7.18965235	     12.10443030	    -17.81320436	     -3.85161068	     -1.86037169	    -16.78611471	     -2.40434787	     21.77587108	     66.86338828	     -7.35639812	     -5.24243055
      3.27118644	      1.44869760	     -3.07992265	     97.96807538	      0.26770044	      0.89742331	      0.61518925	    -10.98058958	      4.18095308	      4.91615468	      0.34939415	      0.00609808	     26.23637150	     -8.98135495	      0.00000000	     -9.58546223	     -5.03797967	     19.93958451	      0.21655339	      0.00377957	     30.72034183	    -14.20335378	      0.00000000	     -0.38568169	      0.26167737	     -0.39911805	     -0.71624946	      0.34803090	     -0.42406293	     -0.63363644	      0.63624236	     -0.42406293	     -0.44079560	      0.63624236	     -0.34922829	     -0.35814401	      0.53361249	     -0.32428342	     -0.22037852	      0.40533825	     -0.29933854	     -2.75488571	      2.96014674	     -2.21977486	      0.00000000	      0.00000000	     12.13322421	      2.36475251	     -8.96302803	     10.04420580	    -16.68328401	    102.44966951	      6.25733622	      9.47695021	    -17.52681033	     -5.38199801	     -1.52528132	    -16.49441896	     -3.88841727	     21.25483256	     71.35260816	     -7.48306654	     -5.73131693
      3.28813559	      1.43642951	     -3.05547461	     97.94485116	      0.26773138	      0.89778705	      0.61644815	    -10.96824866	      4.16574347	      4.92044963	      0.36765697	      0.00641682	     26.23660755	     -8.96691171	      0.00000000	     -9.54872324	     -5.02304370	     19.88988267	      0.21274629	      0.00371312	     30.70580603	    -14.22318452	      0.00000000	     -0.39212616	      0.25917207	     -0.41750805	     -0.72821749	      0.34469886	     -0.44360231	     -0.64422406	      0.63015098	     -0.44360231	     -0.44816098	      0.63015098	     -0.36531955	     -0.36412835	      0.52850369	     -0.33922529	     -0.22406089	      0.40145754	     -0.31313104	     -2.80091792	      2.93180634	     -2.32205454	      0.00000000	      0.00000000	     12.11698548	      2.34344908	     -8.91597276	      9.90684754	    -16.72454542	    102.36985971	      6.23055451	      9.39408029	    -17.53665532	     -5.35576211	     -1.50178968	    -16.44909242	     -3.89985710	     21.24023082	     71.35485230	     -7.46284323	     -5.74836270
